<svg xmlns="http://www.w3.org/2000/svg" xmlns:svg="http://www.w3.org/2000/svg" id="svg8" width="336" height="2in" version="1.1" viewBox="0 0 88.9 50.8"><metadata id="metadata5"/><g id="layer1" transform="translate(0,-246.19998)"><rect style="fill:#0068ad;fill-opacity:1;stroke-width:.26458332" id="rect815" width="88.867" height="50.781" x="0" y="246.219"/><g id="g857" transform="matrix(0.0440952,0,0,0.0440952,27.313272,250.61599)"><g id="g1458" transform="translate(2.6732674,47.920792)"><g id="g5704" transform="matrix(1.1297393,0,0,1.1297393,-77.269955,-90.868065)"><path id="path4547" d="M 133.66337,537.32672 53.169493,395.16204 136.04077,254.36996 l 163.36516,1.3726 80.49388,142.16467 -82.87128,140.79208 z" transform="matrix(1.885605,1.068374,-1.068374,1.885605,435.37338,-586.96849)" style="fill:#efefef;fill-opacity:1"/><path id="path4526" d="m 279.70981,384.04443 0.27487,-169.30119 12.52346,7.0906 c 6.88794,3.89982 53.53477,31.26448 103.65967,60.81031 50.12493,29.54583 99.86597,58.76157 110.53568,64.92392 l 19.39948,11.20424 -28.20645,16.62219 -28.20646,16.62215 -11.62238,-6.54637 c -6.3923,-3.60048 -33.96447,-19.83642 -61.2715,-36.07982 -27.30698,-16.2434 -54.1315,-32.04668 -59.61002,-35.11841 l -9.96092,-5.58492 -0.0867,136.33914 c -0.0479,74.98651 -0.1257,136.40453 -0.17359,136.48448 -0.0477,0.08 -10.76148,-6.22453 -23.80839,-14.00993 l -23.72165,-14.15526 z m 50.29587,63.22511 c -0.0381,-73.35843 -0.0353,-133.58141 0.009,-133.82891 0.0418,-0.24756 10.66757,5.87814 23.61269,13.61248 l 23.53666,14.06244 0.50531,41.67071 c 1.15098,94.91374 1.50547,115.31945 2.00073,115.15847 0.43434,-0.14131 49.80805,-28.16517 234.53754,-133.12088 l 17.02211,-9.67131 -2.30213,31.14264 -2.30213,31.14258 -2.75248,1.57147 c -10.83884,6.18825 -293.39291,161.9055 -293.56999,161.78819 -0.12397,-0.0819 -0.25626,-60.16947 -0.29462,-133.52788 z m 51.37211,23.70594 c -0.20481,-12.59795 -0.25114,-23.12148 -0.10316,-23.38562 0.25393,-0.4528 32.14886,-19.37944 113.84734,-67.55757 19.50196,-11.5004 35.42135,-21.05526 35.37645,-21.23295 -0.0993,-0.39182 -208.97969,-123.76256 -232.44109,-137.28618 -9.15021,-5.27435 -16.54282,-9.74509 -16.428,-9.93491 0.11508,-0.18985 11.63843,-7.80749 25.60809,-16.92816 l 25.39946,-16.58299 17.9804,10.34745 c 23.18334,13.34163 278.41843,164.17842 278.52515,164.60049 0.0442,0.17576 -55.08613,31.6269 -122.51243,69.89119 -67.42629,38.26431 -123.10769,69.88718 -123.73649,70.27306 -1.08217,0.66406 -1.16318,-0.52285 -1.5157,-22.20381 z" style="fill:#3e3e3e;fill-opacity:1;stroke-width:.4954989"/></g></g></g><text style="font-style:normal;font-variant:normal;font-weight:400;font-stretch:normal;font-size:5.84049177px;line-height:1.25;font-family:Roboto;-inkscape-font-specification:Roboto;letter-spacing:0;word-spacing:0;fill:#efefef;fill-opacity:1;stroke:none;stroke-width:.14601229" id="text865" x="35.141" y="292.906" xml:space="preserve"><tspan id="tspan863" x="35.141" y="292.906" dx=".044" style="font-style:normal;font-variant:normal;font-weight:400;font-stretch:normal;line-height:6;font-family:Roboto;-inkscape-font-specification:Roboto;letter-spacing:.00438037px;word-spacing:.00146012px;fill:#efefef;fill-opacity:1;stroke-width:.14601229">deez.io</tspan></text></g></svg>